# xmcd CD database file
#
# Track frame offsets:
#	183
#	13478
#	26960
#	38225
#	50263
#	64263
#	82000
#	95763
#	109515
#	122955
#
# Disc length: 1819 seconds
#
# Revision: 0
# Processed by: cddbd v1.5.2PL0 Copyright (c) Steve Scherf et al.
# Submitted via: CDex 1.50
#
DISCID=8d07190a
DTITLE=Billie Jo Spears - Unmistakabily
DYEAR=1991
DGENRE=Country
TTITLE0=Every Time I Close My Eyes
TTITLE1=One Smokey Rose
TTITLE2=Mutual Aquaintance
TTITLE3=I Got On This Train To Ride
TTITLE4=If Wishes Were Wings
TTITLE5=We Need To Wallk
TTITLE6=Keep Me From Dreamin'
TTITLE7=The Star
TTITLE8=We're Over
TTITLE9=It Won't Be Long
EXTD=YEAR: 1991
EXTT0=
EXTT1=
EXTT2=
EXTT3=
EXTT4=
EXTT5=
EXTT6=
EXTT7=
EXTT8=
EXTT9=
PLAYORDER=
